#!OML:ASF F:\VICON\USERDATA\INSTALL\rory3\rory3.ASF
:FULLY-SPECIFIED
:DEGREES
555
root 5.03931 17.9904 7.00829 9.80426 -5.94897 -5.46668
lowerback 1.40963 -1.82369 0.0309149
upperback -4.76585 -2.31014 2.93329
thorax -5.60761 -1.08009 3.1745
lowerneck -8.71301 -8.21945 -9.78652
upperneck 18.3991 -10.402 3.25389
head 7.80928 -5.37336 1.63763
rclavicle 2.11778e-014 -2.10712e-014
rhumerus -49.655 2.66438 -81.4472
rradius 68.6218
rwrist 11.0091
rhand -25.3321 -54.7471
rfingers 7.12502
rthumb 1.19084 -84.7235
lclavicle 2.11778e-014 -2.10712e-014
lhumerus -36.4769 -21.4122 71.3917
lradius 66.4133
lwrist -4.98828
lhand -32.6099 -47.4094
lfingers 7.12502
lthumb -5.83756 -17.5098
rfemur -94.8901 8.69175 17.171
rtibia 129.069
rfoot -3.76241 -11.6428
rtoes -4.72496
lfemur -11.4844 -2.34807 -17.8379
ltibia 21.0135
lfoot -4.75067 13.717
ltoes -11.9669
556
root 5.03781 18.177 7.03797 9.83071 -5.49099 -5.76078
lowerback 1.30892 -2.01972 0.439313
upperback -4.87485 -2.54824 3.07565
thorax -5.66411 -1.21261 3.1078
lowerneck -8.59815 -8.20377 -9.99376
upperneck 18.5319 -10.3735 3.29596
head 7.84587 -5.37363 1.68888
rclavicle -5.19482e-014 1.55176e-014
rhumerus -49.6394 2.09933 -81.1922
rradius 67.989
rwrist 11.1496
rhand -23.5955 -51.7172
rfingers 7.12502
rthumb 2.86797 -81.6777
lclavicle -5.19482e-014 1.55176e-014
lhumerus -36.6996 -21.792 71.6266
lradius 66.6797
lwrist -4.63878
lhand -32.6961 -48.0297
lfingers 7.12502
lthumb -5.92084 -18.1325
rfemur -95.1619 7.98509 17.216
rtibia 130.319
rfoot -3.62935 -11.0698
rtoes -5.34067
lfemur -9.99739 -3.15024 -17.3987
ltibia 18.0298
lfoot -1.81723 13.0866
ltoes -15.1034
557
root 5.03566 18.3849 7.05834 9.86061 -5.0759 -5.96078
lowerback 1.35304 -2.20642 0.704393
upperback -5.00023 -2.77676 3.21057
thorax -5.81753 -1.33315 3.12119
lowerneck -8.82467 -8.23911 -10.0608
upperneck 18.8761 -10.3685 3.13701
head 7.99661 -5.38967 1.63276
rclavicle 5.56435e-014 1.03989e-014
rhumerus -49.6511 1.64209 -80.9286
rradius 67.4531
rwrist 11.1371
rhand -22.5649 -49.5848
rfingers 7.12502
rthumb 3.86327 -79.5295
lclavicle 5.56435e-014 1.03989e-014
lhumerus -36.8223 -21.9997 71.8806
lradius 66.8997
lwrist -4.23662
lhand -32.5382 -48.0215
lfingers 7.12502
lthumb -5.76835 -18.12
rfemur -95.3143 7.39362 17.2105
rtibia 131.373
rfoot -3.87749 -10.6615
rtoes -4.85852
lfemur -8.64972 -3.99883 -17.0377
ltibia 15.1114
lfoot 1.23852 12.6209
ltoes -20.8052
558
root 5.02592 18.5767 7.08107 9.95002 -4.82096 -6.48199
lowerback 1.31843 -2.33969 1.21111
upperback -5.06052 -2.92179 3.43247
thorax -5.87015 -1.42296 3.07956
lowerneck -9.27768 -8.31631 -10.0248
upperneck 19.2402 -10.3926 2.87857
head 8.18586 -5.41813 1.51449
rclavicle 3.7434e-014 -4.7435e-014
rhumerus -49.4526 1.36186 -80.9105
rradius 66.8734
rwrist 10.3838
rhand -20.6613 -55.1601
rfingers 7.12502
rthumb 5.70141 -85.0634
lclavicle 3.7434e-014 -4.7435e-014
lhumerus -36.9716 -21.9616 72.107
lradius 67.0838
lwrist -4.14038
lhand -32.4963 -47.8821
lfingers 7.12502
lthumb -5.72787 -17.9795
rfemur -95.631 7.2693 17.6187
rtibia 132.415
rfoot -3.9558 -10.4431
rtoes -3.67086
lfemur -7.26412 -4.50635 -16.333
ltibia 12.0481
lfoot 5.11773 11.9046
ltoes -23.9394
559
root 5.01117 18.7599 7.10716 10.0994 -4.58475 -7.07469
lowerback 1.15479 -2.44265 1.81657
upperback -5.17263 -3.02657 3.62252
thorax -5.91396 -1.49874 2.94317
lowerneck -9.09954 -8.39226 -10.2573
upperneck 19.2768 -10.4959 2.95307
head 8.19201 -5.4802 1.56873
rclavicle -5.05499e-014 3.72721e-014
rhumerus -49.3251 1.11379 -81.0192
rradius 66.3388
rwrist 9.36718
rhand -20.7497 -59.901
rfingers 7.12502
rthumb 5.616 -89.8066
lclavicle -5.05499e-014 3.72721e-014
lhumerus -37.3437 -22.0126 72.4178
lradius 67.1482
lwrist -4.14539
lhand -32.7774 -47.3192
lfingers 7.12502
lthumb -5.99932 -17.4241
rfemur -96.0168 7.33435 18.1729
rtibia 133.426
rfoot -3.8861 -10.3758
rtoes -2.91634
lfemur -5.58414 -4.52887 -15.574
ltibia 8.30068
lfoot 10.3378 10.7093
ltoes -21.9318
560
root 4.99499 18.9479 7.12631 10.2895 -4.29096 -7.38438
lowerback 1.00515 -2.53939 2.16545
upperback -5.40375 -3.13498 3.7176
thorax -6.08455 -1.56642 2.85775
lowerneck -8.3078 -8.44635 -10.7589
upperneck 19.0754 -10.6467 3.30964
head 8.04441 -5.5665 1.78111
rclavicle -2.78035e-014 1.34925e-014
rhumerus -49.3393 0.54697 -80.8225
rradius 65.52
rwrist 9.10254
rhand -21.1958 -59.1474
rfingers 7.12502
rthumb 5.18533 -89.064
lclavicle -2.78035e-014 1.34925e-014
lhumerus -37.822 -22.2281 72.8709
lradius 67.1375
lwrist -3.77539
lhand -32.8982 -46.9466
lfingers 7.12502
lthumb -6.11597 -17.0548
rfemur -96.3963 7.17008 18.5722
rtibia 134.348
rfoot -3.81478 -10.3997
rtoes -3.33697
lfemur -3.43745 -4.65356 -15.0653
ltibia 3.34182
lfoot 16.3244 10.0961
ltoes -18.3725
561
root 4.98321 19.1394 7.13949 10.4728 -3.99245 -7.6805
lowerback 0.884861 -2.63698 2.53625
upperback -5.56465 -3.24444 3.823
thorax -6.19979 -1.63632 2.76983
lowerneck -7.83844 -8.47025 -11.0309
upperneck 19.0329 -10.7125 3.41085
head 7.97433 -5.61579 1.86867
rclavicle 6.35529e-014 -1.28216e-014
rhumerus -49.2421 0.0617866 -80.6936
rradius 64.8005
rwrist 8.34698
rhand -21.0811 -53.4771
rfingers 7.12502
rthumb 5.29601 -83.3909
lclavicle 6.35529e-014 -1.28216e-014
lhumerus -38.083 -22.3903 73.3413
lradius 66.9565
lwrist -3.30066
lhand -33.0777 -46.8817
lfingers 7.12502
lthumb -6.28922 -16.995
rfemur -96.5985 7.03699 19.0316
rtibia 135.078
rfoot -3.683 -10.5197
rtoes -2.76857
lfemur -2.24873 -4.78397 -14.5582
ltibia -1.11319e-014
lfoot 20.8703 10.3642
ltoes -15.1074
562
root 4.97858 19.3076 7.15307 10.7065 -3.77092 -7.75712
lowerback 0.661311 -2.73992 2.77869
upperback -5.6647 -3.37851 3.85192
thorax -6.18783 -1.71502 2.66552
lowerneck -7.91469 -8.48163 -10.9999
upperneck 19.2523 -10.6971 3.23669
head 8.04915 -5.62325 1.80196
rclavicle 8.20453e-015 -2.45996e-014
rhumerus -48.9034 -0.254215 -80.735
rradius 63.7853
rwrist 7.43078
rhand -20.4087 -56.8083
rfingers 7.12502
rthumb 5.94524 -86.7049
lclavicle 8.20453e-015 -2.45996e-014
lhumerus -38.3109 -22.3811 73.7458
lradius 66.74
lwrist -3.09787
lhand -33.2877 -46.9331
lfingers 7.12502
lthumb -6.49192 -17.0526
rfemur -96.9721 6.57352 19.2627
rtibia 135.904
rfoot -3.57252 -10.2976
rtoes -1.14034
lfemur -2.91841 -4.87267 -14.3667
ltibia 5.56597e-015
lfoot 23.3672 10.6502
ltoes -12.8659
563
root 4.97327 19.4666 7.16913 11.0126 -3.59276 -7.83855
lowerback 0.296787 -2.84073 3.05389
upperback -5.70252 -3.521 3.85763
thorax -6.03311 -1.80053 2.50676
lowerneck -8.3589 -8.46833 -10.8615
upperneck 19.5582 -10.6395 3.14105
head 8.21302 -5.59105 1.73225
rclavicle -3.02774e-014 3.43649e-014
rhumerus -48.1311 -0.662006 -80.8159
rradius 62.1541
rwrist 7.18488
rhand -22.3261 -54.4429
rfingers 7.12502
rthumb 4.09387 -84.3833
lclavicle -3.02774e-014 3.43649e-014
lhumerus -38.5225 -22.1383 74.0247
lradius 66.6029
lwrist -3.10703
lhand -33.2817 -46.5985
lfingers 7.12502
lthumb -6.48621 -16.7179
rfemur -97.3477 6.2372 19.5681
rtibia 136.694
rfoot -3.48276 -10.2633
rtoes -0.57223
lfemur -3.56581 -4.91455 -14.2238
ltibia 1.19271e-014
lfoot 25.5696 10.3653
ltoes -11.7616
564
root 4.9647 19.6089 7.19224 11.2126 -3.43312 -7.96287
lowerback -0.0871229 -2.9007 3.3778
upperback -5.67338 -3.61358 3.85114
thorax -5.80265 -1.86313 2.30007
lowerneck -8.59508 -8.44986 -10.8379
upperneck 19.7261 -10.6189 3.24885
head 8.31442 -5.56786 1.75391
rclavicle 1.5553e-014 1.55549e-014
rhumerus -47.9743 -0.678142 -81.0877
rradius 61.9078
rwrist 6.09407
rhand -22.9808 -55.2852
rfingers 7.12502
rthumb 3.46169 -85.2369
lclavicle 1.5553e-014 1.55549e-014
lhumerus -38.7197 -21.9766 74.3658
lradius 66.4466
lwrist -3.12158
lhand -33.2253 -45.6485
lfingers 7.12502
lthumb -6.43176 -15.7662
rfemur -97.4756 5.9625 20.042
rtibia 137.441
rfoot -3.57663 -10.4027
rtoes -0.978107
lfemur -3.96007 -4.94753 -14.1169
ltibia -6.36111e-015
lfoot 27.0159 10.4146
ltoes -10.2862
565
root 4.95941 19.7375 7.21908 11.1261 -3.37534 -7.93865
lowerback -0.101207 -2.88898 3.55983
upperback -5.68546 -3.59428 3.79669
thorax -5.82342 -1.86372 2.14171
lowerneck -8.36737 -8.50667 -11.0235
upperneck 19.7575 -10.728 3.39904
head 8.31237 -5.62365 1.82782
rclavicle 3.71945e-016 1.49337e-014
rhumerus -47.997 -0.801436 -81.1422
rradius 62.0181
rwrist 4.47762
rhand -21.1316 -59.9132
rfingers 7.12502
rthumb 5.24731 -89.8282
lclavicle 3.71945e-016 1.49337e-014
lhumerus -39.2161 -22.0089 74.9398
lradius 66.4938
lwrist -2.67872
lhand -32.7545 -45.5314
lfingers 7.12502
lthumb -5.97717 -15.6357
rfemur -97.2434 5.54422 20.4398
rtibia 138.126
rfoot -3.80712 -10.3153
rtoes -1.43727
lfemur -3.96428 -4.95217 -14.3272
ltibia -3.18055e-015
lfoot 27.4357 11.5985
ltoes -8.46437
566
root 4.94416 19.8506 7.21579 11.3743 -3.17038 -8.0478
lowerback -0.0537705 -2.92404 3.67479
upperback -5.88115 -3.62143 3.895
thorax -6.06078 -1.88182 2.19593
lowerneck -8.22515 -8.64989 -11.1587
upperneck 19.8466 -10.8993 3.27111
head 8.3326 -5.72938 1.78987
rclavicle 8.16958e-015 2.33572e-015
rhumerus -47.8788 -1.05857 -80.9084
rradius 60.886
rwrist 5.06608
rhand -21.8784 -57.7462
rfingers 7.12502
rthumb 4.52621 -87.6778
lclavicle 8.16958e-015 2.33572e-015
lhumerus -39.6895 -21.9575 75.5748
lradius 66.5459
lwrist -1.89199
lhand -32.0909 -46.0145
lfingers 7.12502
lthumb -5.33649 -16.1017
rfemur -97.6463 5.68113 21.0707
rtibia 138.724
rfoot -3.46231 -10.5262
rtoes -1.24075
lfemur -4.40654 -5.0394 -14.3205
ltibia 1.35174e-014
lfoot 27.5728 13.2483
ltoes -6.42007
